<?xml version="1.0" standalone="no"?>
<!DOCTYPE svg PUBLIC "-//W3C//DTD SVG 20010904//EN"
 "http://www.w3.org/TR/2001/REC-SVG-20010904/DTD/svg10.dtd">
<svg version="1.0" xmlns="http://www.w3.org/2000/svg"
 width="593.000000pt" height="600.000000pt" viewBox="0 0 593.000000 600.000000"
 preserveAspectRatio="xMidYMid meet">
<metadata>
Created by potrace 1.16, written by Peter Selinger 2001-2019
</metadata>
<g transform="translate(0.000000,600.000000) scale(0.100000,-0.100000)"
fill="#000000" stroke="none">
<path d="M2926 5870 c-4 -52 -14 -122 -21 -155 -7 -33 -21 -105 -30 -160 -19
-113 -56 -202 -107 -256 -33 -35 -38 -36 -125 -43 -50 -4 -115 -14 -145 -22
-29 -7 -61 -14 -70 -14 -10 0 -39 34 -72 84 -31 47 -60 87 -65 90 -4 3 -11
-27 -15 -67 -15 -159 -12 -152 -69 -171 -29 -10 -103 -38 -165 -63 l-112 -46
-68 29 c-53 23 -86 47 -162 121 -52 51 -96 91 -98 89 -1 -2 6 -32 17 -67 33
-105 46 -220 31 -288 -11 -55 -16 -61 -73 -102 -34 -24 -94 -73 -135 -108
l-73 -63 -62 30 c-80 39 -139 63 -144 59 -2 -2 14 -42 35 -88 21 -46 41 -92
45 -101 4 -12 -16 -44 -66 -105 -40 -48 -88 -109 -106 -135 -23 -32 -46 -51
-69 -59 -55 -18 -203 -5 -296 25 -44 15 -81 25 -82 23 -2 -2 34 -42 80 -90 85
-87 139 -167 150 -223 5 -22 -1 -48 -22 -95 -16 -35 -42 -98 -57 -139 -15 -41
-31 -85 -35 -96 -8 -19 -19 -22 -114 -29 -58 -4 -108 -10 -111 -14 -2 -4 28
-31 68 -59 40 -28 80 -58 90 -66 17 -13 16 -21 -8 -167 -14 -84 -25 -157 -25
-161 0 -4 -24 -25 -54 -47 -84 -62 -227 -101 -484 -132 -56 -7 -102 -17 -102
-21 0 -4 4 -8 8 -8 26 0 259 -33 319 -46 148 -30 243 -72 295 -130 10 -12 26
-76 43 -177 15 -87 25 -160 23 -161 -11 -10 -128 -91 -150 -104 -41 -25 -29
-37 38 -39 107 -5 164 -14 164 -27 0 -18 78 -221 99 -260 42 -73 -19 -192
-173 -339 l-51 -49 38 7 c21 3 66 15 100 26 78 26 234 30 267 6 12 -8 51 -53
88 -100 37 -47 84 -106 105 -131 l39 -45 -46 -97 c-42 -88 -52 -114 -43 -114
2 0 17 6 33 14 53 26 164 76 170 76 2 0 45 -34 95 -76 50 -41 109 -87 130
-101 29 -19 42 -36 50 -67 22 -80 8 -226 -32 -331 -10 -27 -19 -54 -19 -60 0
-5 35 26 78 70 162 165 234 192 359 137 37 -17 102 -43 143 -58 41 -15 78 -30
82 -34 4 -3 14 -55 21 -115 l13 -110 57 87 c32 48 62 90 67 93 4 3 30 1 57 -5
26 -6 98 -17 158 -24 108 -14 110 -15 142 -53 18 -21 46 -70 62 -108 33 -78
78 -303 88 -432 3 -46 9 -83 13 -83 4 0 10 21 13 47 21 160 59 395 71 435 7
25 32 75 56 110 l42 64 106 13 c59 7 134 19 167 27 33 7 63 10 66 6 3 -4 34
-49 68 -100 35 -52 65 -92 67 -89 3 3 11 56 17 118 l12 114 130 53 c72 28 140
57 153 62 73 31 165 -16 294 -153 43 -45 76 -75 73 -67 -30 106 -55 235 -55
284 0 97 13 127 67 161 26 17 90 65 141 108 l93 78 100 -51 c54 -28 99 -47 98
-43 0 4 -22 51 -48 103 l-47 95 75 90 c101 119 141 172 141 183 0 5 20 15 45
22 62 17 156 8 279 -29 l98 -29 -90 92 c-88 88 -132 156 -146 222 -5 23 -1 43
17 77 14 25 34 72 45 104 46 127 58 159 65 171 6 8 41 12 118 12 60 0 109 3
109 8 -1 4 -44 36 -96 71 -87 59 -95 67 -89 90 4 14 8 41 11 61 2 19 8 58 14
85 5 28 12 76 16 108 7 64 28 88 115 133 83 41 350 93 486 94 28 0 55 5 58 10
3 6 0 10 -8 10 -49 0 -367 54 -442 76 -87 24 -188 84 -201 119 -3 8 -16 82
-28 165 l-22 151 82 58 c45 33 93 65 106 72 22 13 22 13 -17 20 -22 4 -81 10
-132 14 l-91 7 -10 36 c-14 52 -66 189 -91 239 -27 54 -27 58 10 133 22 44 59
90 122 152 49 49 88 91 85 93 -3 3 -38 -7 -79 -21 -97 -34 -255 -44 -311 -20
-21 9 -38 21 -38 27 0 12 -149 206 -179 233 -16 15 -17 21 -6 44 47 99 77 173
74 177 -3 2 -47 -17 -98 -42 -62 -31 -98 -43 -106 -37 -7 5 -47 38 -90 74 -42
36 -99 80 -127 99 -69 47 -82 81 -74 194 4 58 16 120 36 179 17 50 29 92 28
93 -2 2 -28 -25 -58 -60 -75 -88 -172 -161 -241 -184 -32 -10 -42 -8 -105 20
-38 18 -114 48 -169 68 -88 32 -100 39 -102 61 -1 14 -5 65 -9 114 -7 102 -3
103 -85 -20 l-55 -80 -69 17 c-39 10 -112 21 -162 25 l-93 7 -34 41 c-66 80
-106 218 -136 466 -25 206 -25 207 -34 100z m45 -506 c21 -23 24 -34 24 -110
0 -78 -2 -85 -27 -111 -23 -23 -30 -25 -52 -15 -33 15 -49 70 -44 148 3 49 9
69 28 89 30 31 40 31 71 -1z m-178 -184 c57 -62 108 -181 123 -285 10 -69 20
-71 33 -5 14 69 61 199 90 246 11 18 36 44 56 60 l37 28 67 -17 c36 -10 75
-19 86 -22 11 -2 52 -13 90 -23 l70 -19 7 -49 c3 -27 7 -70 7 -96 1 -27 5 -48
10 -48 6 0 33 34 62 75 28 41 54 75 56 75 11 0 133 -32 220 -57 l91 -27 16
-50 c22 -68 9 -190 -31 -309 -16 -48 -26 -86 -22 -85 3 2 26 26 50 55 50 58
190 173 211 173 8 0 18 4 23 9 6 4 25 11 42 14 31 6 39 0 155 -113 l123 -119
-17 -33 c-46 -92 -68 -141 -64 -145 2 -3 42 11 88 31 46 20 87 36 91 36 17 0
227 -227 227 -245 0 -73 -36 -131 -164 -264 -45 -46 -74 -81 -65 -78 138 47
186 57 270 57 53 0 103 -6 122 -14 29 -12 35 -20 46 -72 8 -33 26 -101 42
-153 16 -52 28 -95 27 -96 -2 -1 -40 -27 -84 -58 -125 -87 -125 -87 -5 -87
108 0 141 -9 141 -39 0 -10 12 -59 26 -107 15 -49 30 -109 35 -134 9 -42 8
-45 -28 -83 -59 -61 -169 -110 -307 -137 -62 -13 -62 -30 1 -30 48 0 182 -45
233 -78 25 -16 60 -45 78 -64 l32 -34 -35 -138 c-19 -76 -35 -147 -35 -157 0
-10 -1 -19 -2 -20 -2 -1 -52 -6 -113 -13 l-110 -11 80 -54 c44 -30 84 -57 88
-61 9 -8 -58 -272 -76 -302 -18 -28 -70 -48 -124 -48 -66 0 -215 27 -277 50
l-51 20 90 -88 c109 -106 158 -183 157 -247 -1 -53 -7 -61 -129 -179 l-92 -89
-38 18 c-21 9 -60 28 -87 42 -26 13 -50 23 -52 21 -3 -4 46 -130 65 -166 9
-16 -6 -35 -103 -130 -103 -102 -116 -112 -150 -112 -64 0 -149 52 -247 152
-49 51 -89 88 -89 82 0 -5 14 -52 30 -104 40 -126 47 -191 26 -263 l-16 -56
-84 -26 c-47 -14 -99 -28 -118 -30 -18 -2 -52 -11 -74 -19 l-41 -14 -59 79
c-66 90 -67 90 -79 -27 -3 -39 -10 -75 -13 -81 -8 -11 -66 -29 -214 -63 -90
-21 -99 -21 -121 -7 -54 35 -121 176 -147 310 -12 61 -30 77 -30 27 0 -16 0
-31 0 -32 3 -12 -64 -178 -86 -215 -32 -56 -79 -103 -103 -103 -20 0 -198 45
-262 66 -42 13 -47 18 -53 52 -3 20 -6 63 -6 95 0 31 -4 57 -9 57 -5 0 -25
-24 -45 -52 -71 -106 -68 -104 -117 -89 -24 8 -57 15 -72 18 -16 2 -65 16
-110 31 -69 23 -84 32 -96 57 -31 65 -24 143 34 375 6 20 -5 13 -52 -35 -75
-78 -137 -127 -193 -153 -95 -44 -87 -47 -220 84 l-119 119 40 84 c22 46 38
86 35 89 -3 3 -42 -12 -87 -33 l-81 -38 -119 119 c-65 65 -119 127 -119 137 0
55 58 145 164 256 89 91 91 88 -43 52 -81 -23 -238 -30 -282 -12 -24 9 -30 21
-53 120 -15 61 -33 129 -41 152 -8 23 -15 47 -15 53 0 6 37 36 83 66 l82 55
-80 8 c-44 4 -90 10 -102 13 -23 4 -29 19 -67 174 -9 36 -21 84 -28 107 -12
42 -11 44 22 79 48 50 156 102 257 124 121 26 121 26 -6 56 -139 32 -281 120
-281 174 0 10 9 47 20 82 10 35 28 99 38 143 l19 80 44 2 c86 5 149 15 149 23
0 4 -34 29 -75 56 -88 57 -86 40 -36 229 24 88 39 126 56 142 50 44 195 39
347 -13 37 -12 68 -20 68 -16 0 4 -30 37 -66 72 -124 122 -189 243 -160 298
15 30 210 222 225 222 5 0 43 -16 85 -36 42 -20 79 -34 81 -32 3 3 -11 39 -30
81 -19 42 -35 80 -35 85 0 13 232 242 246 242 20 0 117 -47 154 -74 19 -15 68
-59 109 -99 57 -55 72 -66 67 -47 -49 181 -60 307 -33 371 14 33 22 39 94 62
101 33 221 59 234 51 6 -3 26 -29 45 -58 42 -64 59 -86 68 -86 3 0 6 26 6 58
0 100 9 132 39 138 14 2 51 12 81 21 58 17 197 51 216 52 7 1 28 -17 47 -39z
m-979 -152 c70 -68 93 -184 41 -204 -28 -11 -89 40 -118 99 -31 64 -34 93 -11
125 22 31 38 28 88 -20z m2331 2 c17 -19 18 -26 7 -66 -16 -61 -54 -117 -95
-143 -40 -24 -59 -20 -76 16 -21 46 27 156 85 194 37 24 56 24 79 -1z m-3201
-844 c83 -25 154 -94 141 -136 -11 -34 -47 -42 -104 -23 -94 30 -154 111 -116
153 22 24 20 24 79 6z m4064 -18 c21 -21 13 -47 -29 -93 -73 -80 -199 -97
-199 -27 0 31 51 87 105 115 36 19 106 22 123 5z m-4269 -1156 c55 -27 62 -49
26 -77 -54 -44 -171 -45 -222 -1 -18 16 -24 28 -19 42 15 49 147 71 215 36z
m4579 -12 c43 -26 40 -56 -8 -88 -47 -32 -149 -29 -198 7 -40 28 -38 48 7 78
46 31 150 32 199 3z m-4250 -1092 c54 -54 -77 -176 -179 -166 -30 3 -34 7 -37
35 -4 40 33 82 103 117 55 28 94 33 113 14z m3834 -18 c61 -26 93 -53 108 -90
11 -27 10 -33 -6 -51 -15 -17 -26 -20 -57 -15 -70 11 -135 54 -162 107 -12 22
-12 29 1 48 19 27 57 27 116 1z m-3034 -792 c31 -31 5 -132 -49 -188 -33 -34
-46 -41 -72 -38 -30 3 -32 5 -35 48 -3 56 42 141 91 170 37 23 49 24 65 8z
m2218 -33 c48 -51 78 -141 57 -174 -29 -47 -98 -7 -143 83 -34 68 -37 92 -13
118 26 29 53 21 99 -27z m-1137 -265 c23 -12 51 -80 51 -123 0 -81 -39 -145
-79 -132 -64 20 -78 188 -20 246 22 22 24 22 48 9z"/>
<path d="M3017 4754 c55 -38 80 -72 105 -142 34 -97 39 -173 17 -260 -30 -114
-140 -315 -180 -327 -18 -6 -19 -18 -18 -168 1 -91 4 -149 8 -132 16 64 62
172 94 216 104 146 294 229 462 201 37 -6 70 -13 73 -16 13 -14 -52 -88 -91
-105 -23 -10 -48 -25 -55 -34 -12 -14 -17 -14 -49 -1 -19 8 -62 15 -95 15 -70
1 -103 -17 -130 -72 -21 -41 -24 -128 -5 -154 13 -16 15 -14 20 25 10 75 74
104 122 55 43 -42 32 -122 -36 -261 -21 -45 -39 -85 -39 -90 0 -5 -9 -20 -19
-33 l-18 -24 -7 37 c-5 25 -23 53 -61 91 -29 30 -58 55 -64 55 -6 0 3 -22 19
-49 78 -127 51 -296 -68 -423 -75 -80 -139 -110 -237 -110 -39 0 -44 -2 -36
-16 10 -21 28 -159 37 -280 4 -68 9 -90 18 -83 20 16 272 140 299 146 32 8 32
9 8 44 -81 113 -34 332 95 450 43 40 71 56 125 72 44 13 84 19 105 16 55 -9
39 8 -25 28 -38 11 -77 16 -110 13 -59 -6 -61 -14 27 119 92 137 159 188 221
167 60 -21 60 -97 -1 -134 -48 -29 -10 -38 47 -10 54 26 94 74 102 122 7 46
-25 116 -73 157 -35 31 -37 36 -39 102 -3 121 54 198 148 199 21 0 48 -5 59
-11 19 -10 20 -9 12 17 -5 16 -8 70 -8 119 1 69 7 107 28 164 14 41 26 79 26
85 0 13 -79 60 -87 52 -5 -5 27 -35 60 -58 11 -7 -32 -65 -85 -114 -54 -50
-121 -93 -156 -100 -41 -8 -48 -20 -22 -34 22 -12 50 -60 50 -85 0 -42 -153
32 -248 120 -103 95 -146 224 -96 292 33 45 119 84 184 83 73 -2 80 -1 50 12
-53 21 -310 69 -405 75 l-100 6 42 -29z"/>
</g>
</svg>
